<svg version="1.0" xmlns="http://www.w3.org/2000/svg" width="933.333" height="933.333" viewBox="0 0 700 700"><path d="M326.8.5c-.1.1-4 .5-8.6.9-9.1.6-17.8 1.9-29.2 4.1-4.1.9-8.5 1.7-9.7 2-5.8 1.1-22.4 5.9-34.5 10.1-24.2 8.4-44.2 17-63.3 27.4-3.3 1.8-7.3 4-9 4.9-11 6-45.2 29.6-49.5 34.1-.3.3-3.4 2.9-7 5.9-18 15-42.9 42.8-57.6 64.1C26.5 200.5 6.7 257.2 1.3 317.6c-1.5 16.8-.7 69.9 1.2 75.7.2.7.7 3.7 1 6.7.9 7.6 1.3 10 2 13.5.3 1.6 1 5.5 1.6 8.5 1.6 8.4 1.7 9.1 4.4 19.6 9.6 37.2 25.4 72.6 46.8 104.4 3.9 5.8 7.3 10.7 7.7 11 .3.3 1.7 2.1 3 4 5.1 7.5 16 19.9 28.5 32.5 31.7 32 59.4 50.3 114 75.5 22.3 10.2 55.6 21.2 74 24.4 1.7.3 5.7 1 9 1.6 3.3.6 7.8 1.3 10 1.6 2.2.3 5.4.7 7 1 13.1 1.9 53.5 2.6 71.4 1.1 5.2-.5 9.7-1 10-1.1.3-.2 3-.6 5.9-1 9.1-1.1 12.4-1.7 23.7-4.2 6.1-1.4 11.8-2.7 12.7-2.9 18.1-4 48.5-15.6 69.3-26.4 22.6-11.8 49-28.5 61.5-39 3-2.5 6.8-5.7 8.5-7.1 9.5-7.9 36.1-35.8 43.1-45.1 1-1.5 4.5-6.1 7.7-10.3 29.9-39.6 54-90.1 65.4-137.1 2.6-10.6 5.1-23.4 5.8-28.8.3-2.3.8-5.9 1.1-8 .3-2.1.7-5.5 1-7.5.9-6.3 1.2-47.3.4-54.2-.4-3.6-1.1-9.2-1.4-12.5-4.1-39.4-19.6-86.1-41.6-125-9.7-17.1-28.2-44.2-35.2-51.6-.7-.8-3.5-4.1-6.3-7.4-8.3-10-25.3-27.2-37.7-38.1-10-8.8-37.8-30.4-39.1-30.4-.2 0-3.7-2.2-7.8-4.9-23.3-15.2-62.5-33.8-84.9-40.2-5.5-1.5-5.2-1.4-7-2.2-2.3-.9-24.8-6.4-31-7.6-10.4-2-12.1-2.3-30-4.7-4.8-.6-49.6-1.5-50.2-.9z"/></svg>