<svg aria-hidden="true" style="position:absolute;width:0;height:0;overflow:hidden" xmlns="http://www.w3.org/2000/svg">
  <defs>
    <symbol id="icon-close" viewBox="0 0 32 32">
      <path stroke-width="2" d="m2.518 2 26.963 28M2 29.481 30 2.518"/>
    </symbol>
    <symbol id="icon-burger" viewBox="0 0 32 32">
      <path stroke-width="1.6" d="M0 6.4h32M0 16h32M0 25.6h32"/>
    </symbol>
    <symbol id="icon-ellipse" viewBox="0 0 32 32">
      <path d="M32 16c0 8.837-7.163 16-16 16S0 24.837 0 16 7.163 0 16 0s16 7.163 16 16z"/>
    </symbol>
    <symbol id="icon-home" viewBox="0 0 32 32">
      <path d="M31.599 15.443c.58-.539.524-1.366-.125-1.846L17.173 3.02c-.649-.48-1.69-.47-2.325.023L.498 14.161c-.635.492-.667 1.318-.069 1.843l.36.317c.597.525 1.562.588 2.154.139l1.072-.812v11.884c0 .729.699 1.319 1.561 1.319h5.594c.862 0 1.561-.59 1.561-1.319v-8.314h7.135v8.314c-.012.729.604 1.319 1.466 1.319h5.928c.862 0 1.561-.59 1.561-1.319V15.815l.662.491c.366.272 1.131.054 1.711-.486l.407-.378z"/>
    </symbol>
    <symbol id="icon-github" viewBox="0 0 32 32">
      <path d="M16 0C7.212 0 0 7.212 0 16c0 7.499 5.262 14.312 12.25 16v-5.293c-.692.152-1.33.156-2.034-.052-.946-.279-1.714-.909-2.284-1.869-.364-.613-1.008-1.278-1.68-1.23l-.165-1.868c1.453-.124 2.711.886 3.457 2.14.332.558.713.884 1.203 1.029.473.14.982.072 1.574-.137.149-1.186.692-1.63 1.102-2.255v-.001c-4.167-.622-5.828-2.832-6.488-4.578-.874-2.317-.405-5.212 1.14-7.041.03-.036.084-.129.063-.194-.708-2.139.155-3.909.187-4.097.817.242.95-.243 3.551 1.337l.449.27c.188.112.129.048.317.034A13.544 13.544 0 0 1 16 7.723c1.136.015 2.273.178 3.404.484l.145.015c-.013-.002.04-.009.127-.062 3.248-1.968 3.132-1.324 4.003-1.608.032.188.883 1.987.182 4.099-.095.291 2.816 2.956 1.203 7.235-.659 1.746-2.32 3.957-6.487 4.578v.001c.534.814 1.176 1.247 1.173 2.927V32C26.738 30.312 32 23.499 32 16c0-8.788-7.212-16-16-16z"/>
    </symbol>
    <symbol id="icon-telegram" viewBox="0 0 32 32">
      <path d="m12.613 19.671-.491 6.444c.702 0 1.006-.282 1.371-.62l3.293-2.937 6.822 4.663c1.251.651 2.133.308 2.47-1.074l4.479-19.586c.397-1.726-.669-2.401-1.888-1.978L2.346 13.989c-1.796.651-1.769 1.585-.305 2.009l6.73 1.954 15.632-9.129c.736-.455 1.405-.203.854.252L12.612 19.672z"/>
    </symbol>
    <symbol id="icon-facebook" viewBox="0 0 16 32">
      <path d="M14.143 15.972h-4.034v14.865H3.997V15.972H1.09v-5.224h2.907V7.367c0-2.418 1.142-6.203 6.166-6.203l4.527.019v5.071h-3.285c-.539 0-1.296.271-1.296 1.424v3.075h4.567l-.534 5.219z"/>
    </symbol>
     <symbol id="icon-greater-sign" viewBox="0 0 26 32">
      <path stroke-linejoin="round" stroke-linecap="round" stroke-width="6.4" d="M5.172 3.2 19.341 16 5.172 28.8"/>
    </symbol>
  </defs>
</svg>

