<?xml version="1.0" standalone="no"?>
<!DOCTYPE svg PUBLIC "-//W3C//DTD SVG 20010904//EN"
 "http://www.w3.org/TR/2001/REC-SVG-20010904/DTD/svg10.dtd">
<svg version="1.0" xmlns="http://www.w3.org/2000/svg"
 width="700.000000pt" height="700.000000pt" viewBox="0 0 700.000000 700.000000"
 preserveAspectRatio="xMidYMid meet">
<metadata>
Created by potrace 1.14, written by Peter Selinger 2001-2017
</metadata>
<g transform="translate(0.000000,700.000000) scale(0.100000,-0.100000)"
fill="#000000" stroke="none">
<path d="M3268 6995 c-1 -1 -40 -5 -86 -9 -91 -6 -178 -19 -292 -41 -41 -9
-85 -17 -97 -20 -58 -11 -224 -59 -345 -101 -242 -84 -442 -170 -633 -274 -33
-18 -73 -40 -90 -49 -110 -60 -452 -296 -495 -341 -3 -3 -34 -29 -70 -59 -180
-150 -429 -428 -576 -641 -319 -465 -517 -1032 -571 -1636 -15 -168 -7 -699
12 -757 2 -7 7 -37 10 -67 9 -76 13 -100 20 -135 3 -16 10 -55 16 -85 16 -84
17 -91 44 -196 96 -372 254 -726 468 -1044 39 -58 73 -107 77 -110 3 -3 17
-21 30 -40 51 -75 160 -199 285 -325 317 -320 594 -503 1140 -755 223 -102
556 -212 740 -244 17 -3 57 -10 90 -16 33 -6 78 -13 100 -16 22 -3 54 -7 70
-10 131 -19 535 -26 714 -11 52 5 97 10 100 11 3 2 30 6 59 10 91 11 124 17
237 42 61 14 118 27 127 29 181 40 485 156 693 264 226 118 490 285 615 390
30 25 68 57 85 71 95 79 361 358 431 451 10 15 45 61 77 103 299 396 540 901
654 1371 26 106 51 234 58 288 3 23 8 59 11 80 3 21 7 55 10 75 9 63 12 473 4
542 -4 36 -11 92 -14 125 -41 394 -196 861 -416 1250 -97 171 -282 442 -352
516 -7 8 -35 41 -63 74 -83 100 -253 272 -377 381 -100 88 -378 304 -391 304
-2 0 -37 22 -78 49 -233 152 -625 338 -849 402 -55 15 -52 14 -70 22 -23 9
-248 64 -310 76 -104 20 -121 23 -300 47 -48 6 -496 15 -502 9z"/>
</g>
</svg>
